<svg width="168" height="41" viewBox="0 0 168 41" fill="none" xmlns="http://www.w3.org/2000/svg">
<path d="M49.2646 29.2332H61.2166V25.6332H53.5126V12.0732H49.2646V29.2332Z" fill="#4F4A5A"/>
<path d="M68.2979 26.8329C66.5939 26.8329 65.7058 25.3449 65.7058 23.1129C65.7058 20.8809 66.5939 19.3689 68.2979 19.3689C70.0019 19.3689 70.9138 20.8809 70.9138 23.1129C70.9138 25.3449 70.0019 26.8329 68.2979 26.8329ZM68.3218 29.6169C72.2818 29.6169 74.8738 26.8089 74.8738 23.1129C74.8738 19.4169 72.2818 16.6089 68.3218 16.6089C64.3858 16.6089 61.7458 19.4169 61.7458 23.1129C61.7458 26.8089 64.3858 29.6169 68.3218 29.6169Z" fill="#4F4A5A"/>
<path d="M81.7282 33.481C83.5522 33.481 85.1602 33.073 86.2402 32.113C87.2242 31.225 87.8722 29.881 87.8722 28.033V16.945H84.1282V18.265H84.0802C83.3602 17.233 82.2562 16.585 80.6242 16.585C77.5762 16.585 75.4642 19.129 75.4642 22.729C75.4642 26.497 78.0322 28.561 80.7922 28.561C82.2802 28.561 83.2162 27.961 83.9362 27.145H84.0322V28.369C84.0322 29.857 83.3362 30.721 81.6802 30.721C80.3842 30.721 79.7362 30.169 79.5202 29.521H75.7282C76.1122 32.089 78.3442 33.481 81.7282 33.481ZM81.7042 25.657C80.2402 25.657 79.2802 24.457 79.2802 22.609C79.2802 20.737 80.2402 19.537 81.7042 19.537C83.3362 19.537 84.2002 20.929 84.2002 22.585C84.2002 24.313 83.4082 25.657 81.7042 25.657Z" fill="#4F4A5A"/>
<path d="M95.5706 26.8329C93.8666 26.8329 92.9786 25.3449 92.9786 23.1129C92.9786 20.8809 93.8666 19.3689 95.5706 19.3689C97.2746 19.3689 98.1866 20.8809 98.1866 23.1129C98.1866 25.3449 97.2746 26.8329 95.5706 26.8329ZM95.5946 29.6169C99.5546 29.6169 102.147 26.8089 102.147 23.1129C102.147 19.4169 99.5546 16.6089 95.5946 16.6089C91.6586 16.6089 89.0186 19.4169 89.0186 23.1129C89.0186 26.8089 91.6586 29.6169 95.5946 29.6169Z" fill="#4F4A5A"/>
<path d="M103.289 29.2332H107.201V16.9452H103.289V29.2332ZM103.289 15.2412H107.201V12.0732H103.289V15.2412Z" fill="#4F4A5A"/>
<path d="M108.898 33.289H112.81V27.961H112.858C113.626 28.993 114.754 29.617 116.338 29.617C119.554 29.617 121.69 27.073 121.69 23.089C121.69 19.393 119.698 16.585 116.434 16.585C114.754 16.585 113.554 17.329 112.714 18.433H112.642V16.945H108.898V33.289ZM115.33 26.593C113.65 26.593 112.69 25.225 112.69 23.233C112.69 21.241 113.554 19.729 115.258 19.729C116.938 19.729 117.73 21.121 117.73 23.233C117.73 25.321 116.818 26.593 115.33 26.593Z" fill="#4F4A5A"/>
<path d="M128.06 29.617C131.276 29.617 133.652 28.225 133.652 25.537C133.652 22.393 131.108 21.841 128.948 21.481C127.388 21.193 125.996 21.073 125.996 20.209C125.996 19.441 126.74 19.081 127.7 19.081C128.78 19.081 129.524 19.417 129.668 20.521H133.268C133.076 18.097 131.204 16.585 127.724 16.585C124.82 16.585 122.42 17.929 122.42 20.521C122.42 23.401 124.7 23.977 126.836 24.337C128.468 24.625 129.956 24.745 129.956 25.849C129.956 26.641 129.212 27.073 128.036 27.073C126.74 27.073 125.924 26.473 125.78 25.249H122.084C122.204 27.961 124.46 29.617 128.06 29.617Z" fill="#4F4A5A"/>
<path d="M138.965 29.5928C140.669 29.5928 141.749 28.9208 142.637 27.7208H142.709V29.2328H146.453V16.9448H142.541V23.8088C142.541 25.2728 141.725 26.2808 140.381 26.2808C139.133 26.2808 138.533 25.5368 138.533 24.1928V16.9448H134.645V25.0088C134.645 27.7448 136.133 29.5928 138.965 29.5928Z" fill="#4F4A5A"/>
<path d="M148.155 29.233H152.067V22.345C152.067 20.881 152.787 19.849 154.011 19.849C155.187 19.849 155.739 20.617 155.739 21.937V29.233H159.651V22.345C159.651 20.881 160.347 19.849 161.595 19.849C162.771 19.849 163.323 20.617 163.323 21.937V29.233H167.235V21.241C167.235 18.481 165.843 16.585 163.059 16.585C161.475 16.585 160.155 17.257 159.195 18.745H159.147C158.523 17.425 157.299 16.585 155.691 16.585C153.915 16.585 152.739 17.425 151.971 18.697H151.899V16.945H148.155V29.233Z" fill="#4F4A5A"/>
<path fill-rule="evenodd" clip-rule="evenodd" d="M9.28808 4.33078C7.85742 5.33114 6.56372 6.51389 5.44067 7.84531C10.03 7.41924 15.8605 8.11496 22.6297 11.4996C29.8583 15.1138 35.6791 15.236 39.7301 14.4546C39.3625 13.3417 38.8997 12.2721 38.3516 11.2553C33.7143 11.7444 27.7693 11.097 20.8409 7.63289C16.4413 5.43309 12.5631 4.52692 9.28808 4.33078ZM35.6427 7.39956C31.9806 3.30791 26.6587 0.73291 20.7353 0.73291C18.9958 0.73291 17.308 0.955017 15.699 1.37239C17.8782 1.967 20.1932 2.8369 22.6297 4.05518C27.7023 6.59144 32.0817 7.40807 35.6427 7.39956ZM40.5962 18.361C35.7022 19.3274 28.9441 19.1289 20.8409 15.0773C13.2653 11.2895 7.23578 11.3372 3.16925 12.2409C2.95935 12.2875 2.75439 12.3365 2.55438 12.3875C2.02197 13.5454 1.59699 14.763 1.29205 16.0274C1.61774 15.9404 1.95428 15.8577 2.30151 15.7805C7.23492 14.6842 14.2054 14.7318 22.6297 18.944C30.2054 22.7318 36.2349 22.6841 40.3015 21.7804C40.4408 21.7495 40.5781 21.7175 40.7131 21.6845C40.7279 21.3692 40.7353 21.0519 40.7353 20.7329C40.7353 19.9304 40.6881 19.1389 40.5962 18.361ZM40.0601 25.9052C35.2136 26.7525 28.6523 26.4273 20.8409 22.5217C13.2653 18.7339 7.23578 18.7816 3.16925 19.6853C2.2666 19.8858 1.45459 20.1301 0.738282 20.388C0.736329 20.5027 0.735352 20.6177 0.735352 20.7329C0.735352 31.7786 9.68964 40.7329 20.7353 40.7329C29.9924 40.7329 37.7806 34.4438 40.0601 25.9052Z" fill="#625F68"/>
</svg>
